<mxfile host="65bd71144e">
    <diagram id="hdoA9168i6_bGG3FA2Sf" name="Page-1">
        <mxGraphModel dx="835" dy="498" grid="1" gridSize="10" guides="1" tooltips="1" connect="1" arrows="1" fold="1" page="1" pageScale="1" pageWidth="827" pageHeight="1169" math="0" shadow="0">
            <root>
                <mxCell id="0"/>
                <mxCell id="1" parent="0"/>
                <mxCell id="2" value="RHI" style="shape=umlFrame;whiteSpace=wrap;html=1;width=40;height=20;boundedLbl=1;verticalAlign=middle;align=left;spacingLeft=5;" vertex="1" parent="1">
                    <mxGeometry width="560" height="330" as="geometry"/>
                </mxCell>
                <mxCell id="3" value="FRHICommandListBase" style="html=1;" vertex="1" parent="1">
                    <mxGeometry x="90" y="110" width="140" height="30" as="geometry"/>
                </mxCell>
                <mxCell id="4" value="FRHIComputeCommandList" style="html=1;" vertex="1" parent="1">
                    <mxGeometry x="80" y="150" width="170" height="30" as="geometry"/>
                </mxCell>
                <mxCell id="5" value="FRHICommandListImmediate" style="html=1;" vertex="1" parent="1">
                    <mxGeometry x="80" y="240" width="180" height="30" as="geometry"/>
                </mxCell>
                <mxCell id="6" value="FRHICommandList" style="html=1;" vertex="1" parent="1">
                    <mxGeometry x="95" y="200" width="140" height="30" as="geometry"/>
                </mxCell>
                <mxCell id="7" value="&lt;span style=&quot;text-align: left&quot;&gt;FNoncopyable&lt;/span&gt;" style="html=1;" vertex="1" parent="1">
                    <mxGeometry x="105" y="40" width="105" height="30" as="geometry"/>
                </mxCell>
                <mxCell id="8" value="FRHIResource" style="html=1;" vertex="1" parent="1">
                    <mxGeometry x="370" y="50" width="90" height="30" as="geometry"/>
                </mxCell>
            </root>
        </mxGraphModel>
    </diagram>
</mxfile>